<?xml version="1.0" standalone="no"?>
<!DOCTYPE svg PUBLIC "-//W3C//DTD SVG 20010904//EN"
 "http://www.w3.org/TR/2001/REC-SVG-20010904/DTD/svg10.dtd">
<svg version="1.0" xmlns="http://www.w3.org/2000/svg"
 width="1000.000000pt" height="600.000000pt" viewBox="0 0 1000.000000 600.000000"
 preserveAspectRatio="xMidYMid meet">

<g transform="translate(0.000000,600.000000) scale(0.100000,-0.100000)"
fill="#000000" stroke="none">
<path d="M6376 5474 c-14 -14 -16 -84 -16 -628 0 -532 -2 -615 -15 -626 -12
-10 -36 -1 -134 54 -69 39 -130 66 -147 66 -19 0 -91 -36 -199 -98 -94 -54
-273 -158 -400 -231 -126 -73 -239 -141 -250 -152 -19 -19 -20 -33 -20 -509 0
-476 1 -490 20 -509 11 -11 200 -123 421 -250 276 -159 410 -231 430 -231 20
0 100 41 239 121 116 67 296 170 400 231 105 60 199 118 210 129 20 19 20 34
23 1170 2 980 0 1154 -12 1177 -11 20 -79 63 -263 165 -137 75 -254 137 -260
137 -6 0 -19 -7 -27 -16z m-164 -1871 c73 -42 136 -82 140 -87 4 -6 8 -81 8
-167 0 -136 -2 -158 -17 -171 -25 -22 -266 -158 -280 -158 -6 0 -75 37 -152
81 l-141 82 2 169 3 170 135 79 c74 43 143 79 152 79 9 0 77 -35 150 -77z"/>
<path d="M1755 4351 c-22 -10 -143 -78 -270 -151 -126 -72 -285 -164 -352
-202 l-123 -70 0 -669 c0 -368 2 -669 4 -669 13 0 446 256 466 276 l25 24 5
325 c3 196 9 328 15 334 31 31 244 144 271 145 35 0 223 -102 267 -145 l27
-27 0 -306 c0 -215 4 -313 12 -331 8 -18 50 -49 127 -94 204 -119 387 -221
397 -221 6 0 18 8 27 18 15 17 17 76 17 646 l0 628 -29 26 c-30 28 -791 466
-826 476 -11 3 -38 -3 -60 -13z"/>
<path d="M8187 4352 c-10 -2 -103 -52 -205 -111 -103 -59 -279 -160 -392 -225
-113 -64 -217 -131 -232 -147 l-28 -29 0 -480 0 -479 23 -24 c12 -14 144 -94
292 -178 149 -84 328 -186 399 -227 101 -57 137 -73 161 -70 40 5 513 266 527
291 7 13 6 24 -4 38 -11 16 -359 220 -737 433 -44 24 -77 50 -82 64 -5 13 -9
85 -9 160 0 104 4 143 15 158 17 25 257 164 282 164 25 0 280 -147 287 -166 3
-9 6 -71 6 -138 0 -127 6 -146 43 -146 11 0 118 57 238 126 l219 126 0 211 0
212 -98 56 c-53 31 -214 124 -358 207 -274 159 -318 181 -347 174z"/>
<path d="M4025 4254 c1 -14 13 -36 25 -47 l22 -22 -12 25 c-7 14 -18 28 -24
32 -15 10 -2 20 18 12 9 -3 16 -14 17 -23 0 -12 2 -13 6 -2 3 8 -5 22 -18 32
-32 25 -38 24 -34 -7z"/>
<path d="M4156 4198 c5 -7 9 -16 9 -20 0 -3 4 -10 9 -15 5 -5 6 -2 1 6 -6 10
-2 12 16 6 19 -5 21 -4 9 5 -8 6 -23 15 -34 21 -15 9 -17 8 -10 -3z"/>
<path d="M4070 4161 c0 -5 6 -16 13 -23 7 -7 18 -22 25 -33 11 -20 11 -20 12
1 0 11 -9 30 -20 42 -23 24 -30 27 -30 13z"/>
<path d="M4254 4111 c4 -5 1 -12 -4 -14 -6 -3 -5 -4 2 -3 15 3 23 26 8 26 -6
0 -9 -4 -6 -9z"/>
<path d="M4145 4033 c15 -27 37 -66 50 -88 14 -22 30 -51 36 -65 6 -14 15 -32
20 -40 5 -8 16 -30 25 -47 9 -18 20 -33 25 -33 4 0 11 -21 14 -47 4 -27 9 -55
12 -63 5 -17 4 -988 -2 -1019 -3 -15 0 -18 12 -14 11 5 14 3 8 -6 -6 -10 -3
-11 14 -2 11 7 21 16 21 20 0 5 10 11 23 15 41 10 342 186 369 216 l27 30 -2
479 c-1 341 -5 483 -13 491 -12 12 -15 7 -167 -265 -28 -49 -59 -101 -69 -114
-18 -23 -18 -23 -18 -2 0 11 -5 21 -11 21 -5 0 -8 4 -4 10 3 5 13 6 23 3 15
-6 16 -5 2 13 -29 38 -67 70 -80 66 -7 -3 -10 0 -7 5 4 5 -2 26 -13 45 -10 20
-17 38 -14 40 2 3 -2 11 -11 18 -12 10 -15 10 -15 -4 0 -9 -5 -16 -11 -16 -6
0 -8 7 -5 16 3 9 8 26 10 37 2 12 1 16 -1 9 -5 -16 -35 -12 -40 5 -2 6 4 13
14 15 16 3 14 7 -11 33 -27 27 -29 28 -42 10 -8 -10 -15 -17 -16 -14 -29 46
-30 51 -8 44 21 -7 21 -6 6 17 -9 13 -29 34 -46 46 -28 21 -45 72 -18 56 8 -5
9 -2 5 10 -4 10 -7 22 -7 27 0 5 -4 9 -10 9 -5 0 -10 -9 -10 -21 0 -11 -4 -17
-10 -14 -5 3 -10 13 -10 20 0 17 -51 94 -63 95 -4 0 4 -21 18 -47z m220 -1411
c-3 -3 -11 0 -18 7 -9 10 -8 11 6 5 10 -3 15 -9 12 -12z"/>
<path d="M3091 3864 c-21 -26 -21 -33 -19 -428 0 -220 4 -381 8 -356 6 40 7
35 10 -40 l3 -85 6 65 c4 39 8 55 11 40 3 -16 12 -25 24 -25 11 0 22 -7 24
-15 5 -13 3 -13 -11 -1 -15 12 -17 11 -17 -3 0 -9 4 -16 10 -16 6 0 5 -10 -2
-25 -6 -13 -15 -22 -21 -18 -6 3 -7 1 -3 -5 3 -6 -3 -27 -15 -46 -16 -28 -18
-40 -10 -50 11 -13 65 -45 551 -325 293 -169 327 -182 282 -109 -11 18 -46 80
-77 138 -221 405 -433 789 -482 875 -22 39 -57 102 -78 140 -21 39 -51 95 -68
125 -17 30 -47 86 -67 123 l-37 68 -22 -27z m89 -814 c0 -5 -5 -10 -11 -10 -5
0 -7 5 -4 10 3 6 8 10 11 10 2 0 4 -4 4 -10z"/>
<path d="M4575 3579 c-4 -6 -5 -12 -2 -15 2 -3 7 2 10 11 7 17 1 20 -8 4z"/>
<path d="M5116 2298 c3 -5 10 -6 15 -3 13 9 11 12 -6 12 -8 0 -12 -4 -9 -9z"/>
</g>
</svg>
